<mxfile host="app.diagrams.net" modified="2024-03-20T12:12:40.771Z" agent="Mozilla/5.0 (Macintosh; Intel Mac OS X 10_15_7) AppleWebKit/537.36 (KHTML, like Gecko) Chrome/122.0.0.0 Safari/537.36" etag="nT1C1u--lOqv4-0ihv6_" version="24.0.7" type="github">
  <diagram name="第 1 页" id="EWHtvkOAn5XjStMEsSWq">
    <mxGraphModel dx="1781" dy="606" grid="1" gridSize="10" guides="1" tooltips="1" connect="1" arrows="1" fold="1" page="1" pageScale="1" pageWidth="827" pageHeight="1169" math="0" shadow="0">
      <root>
        <mxCell id="0" />
        <mxCell id="1" parent="0" />
        <mxCell id="KtVHWiagBkEv6VietaVz-1" style="edgeStyle=orthogonalEdgeStyle;rounded=0;orthogonalLoop=1;jettySize=auto;html=1;exitX=0.5;exitY=1;exitDx=0;exitDy=0;fontSize=13;" edge="1" parent="1" source="KtVHWiagBkEv6VietaVz-2" target="KtVHWiagBkEv6VietaVz-4">
          <mxGeometry relative="1" as="geometry" />
        </mxCell>
        <mxCell id="KtVHWiagBkEv6VietaVz-2" value="物料组件" style="rounded=0;whiteSpace=wrap;html=1;fontSize=13;" vertex="1" parent="1">
          <mxGeometry x="105" y="420" width="100" height="40" as="geometry" />
        </mxCell>
        <mxCell id="KtVHWiagBkEv6VietaVz-3" style="edgeStyle=orthogonalEdgeStyle;rounded=0;orthogonalLoop=1;jettySize=auto;html=1;exitX=0.5;exitY=1;exitDx=0;exitDy=0;fontSize=13;" edge="1" parent="1" source="KtVHWiagBkEv6VietaVz-4" target="KtVHWiagBkEv6VietaVz-6">
          <mxGeometry relative="1" as="geometry" />
        </mxCell>
        <mxCell id="KtVHWiagBkEv6VietaVz-4" value="属性面板解析器" style="rounded=0;whiteSpace=wrap;html=1;fontSize=13;" vertex="1" parent="1">
          <mxGeometry x="98" y="520" width="114" height="40" as="geometry" />
        </mxCell>
        <mxCell id="KtVHWiagBkEv6VietaVz-5" style="edgeStyle=orthogonalEdgeStyle;rounded=0;orthogonalLoop=1;jettySize=auto;html=1;exitX=0.5;exitY=1;exitDx=0;exitDy=0;fontSize=13;" edge="1" parent="1" source="KtVHWiagBkEv6VietaVz-6" target="KtVHWiagBkEv6VietaVz-9">
          <mxGeometry relative="1" as="geometry" />
        </mxCell>
        <mxCell id="KtVHWiagBkEv6VietaVz-6" value="Keep-alive" style="rounded=0;whiteSpace=wrap;html=1;fontSize=13;" vertex="1" parent="1">
          <mxGeometry x="105" y="600" width="100" height="40" as="geometry" />
        </mxCell>
        <mxCell id="KtVHWiagBkEv6VietaVz-7" style="edgeStyle=orthogonalEdgeStyle;rounded=0;orthogonalLoop=1;jettySize=auto;html=1;exitX=0;exitY=0.5;exitDx=0;exitDy=0;fontSize=13;" edge="1" parent="1" source="KtVHWiagBkEv6VietaVz-9" target="KtVHWiagBkEv6VietaVz-11">
          <mxGeometry relative="1" as="geometry" />
        </mxCell>
        <mxCell id="KtVHWiagBkEv6VietaVz-8" style="edgeStyle=orthogonalEdgeStyle;rounded=0;orthogonalLoop=1;jettySize=auto;html=1;exitX=0.5;exitY=1;exitDx=0;exitDy=0;fontSize=13;" edge="1" parent="1" source="KtVHWiagBkEv6VietaVz-9" target="KtVHWiagBkEv6VietaVz-12">
          <mxGeometry relative="1" as="geometry" />
        </mxCell>
        <mxCell id="KtVHWiagBkEv6VietaVz-9" value="是否存在" style="rhombus;whiteSpace=wrap;html=1;fontSize=13;" vertex="1" parent="1">
          <mxGeometry x="115" y="680" width="80" height="80" as="geometry" />
        </mxCell>
        <mxCell id="KtVHWiagBkEv6VietaVz-10" style="edgeStyle=orthogonalEdgeStyle;rounded=0;orthogonalLoop=1;jettySize=auto;html=1;exitX=0.5;exitY=1;exitDx=0;exitDy=0;entryX=0;entryY=0.5;entryDx=0;entryDy=0;fontSize=13;" edge="1" parent="1" source="KtVHWiagBkEv6VietaVz-11" target="KtVHWiagBkEv6VietaVz-12">
          <mxGeometry relative="1" as="geometry" />
        </mxCell>
        <mxCell id="KtVHWiagBkEv6VietaVz-11" value="Vue组件解析器" style="rounded=0;whiteSpace=wrap;html=1;fontSize=13;" vertex="1" parent="1">
          <mxGeometry x="-70" y="700" width="120" height="40" as="geometry" />
        </mxCell>
        <mxCell id="KtVHWiagBkEv6VietaVz-12" value="属性表单面板" style="rounded=0;whiteSpace=wrap;html=1;fontSize=13;" vertex="1" parent="1">
          <mxGeometry x="105" y="820" width="100" height="40" as="geometry" />
        </mxCell>
        <mxCell id="KtVHWiagBkEv6VietaVz-13" value="&lt;span style=&quot;color: rgb(0, 0, 0); font-family: Helvetica; font-size: 13px; font-style: normal; font-variant-ligatures: normal; font-variant-caps: normal; font-weight: 400; letter-spacing: normal; orphans: 2; text-align: center; text-indent: 0px; text-transform: none; widows: 2; word-spacing: 0px; -webkit-text-stroke-width: 0px; white-space: nowrap; background-color: rgb(251, 251, 251); text-decoration-thickness: initial; text-decoration-style: initial; text-decoration-color: initial; float: none; display: inline !important;&quot;&gt;Schema&lt;/span&gt;" style="text;whiteSpace=wrap;html=1;fontSize=13;" vertex="1" parent="1">
          <mxGeometry x="160" y="480" width="90" height="40" as="geometry" />
        </mxCell>
        <mxCell id="KtVHWiagBkEv6VietaVz-14" value="不存在" style="text;html=1;align=center;verticalAlign=middle;whiteSpace=wrap;rounded=0;fontSize=13;" vertex="1" parent="1">
          <mxGeometry x="55" y="690" width="60" height="30" as="geometry" />
        </mxCell>
        <mxCell id="KtVHWiagBkEv6VietaVz-15" value="存在，直接渲染" style="text;html=1;align=center;verticalAlign=middle;whiteSpace=wrap;rounded=0;fontSize=13;" vertex="1" parent="1">
          <mxGeometry x="160" y="770" width="100" height="30" as="geometry" />
        </mxCell>
        <mxCell id="KtVHWiagBkEv6VietaVz-16" value="渲染" style="text;html=1;align=center;verticalAlign=middle;whiteSpace=wrap;rounded=0;fontSize=13;" vertex="1" parent="1">
          <mxGeometry x="-70" y="800" width="60" height="30" as="geometry" />
        </mxCell>
      </root>
    </mxGraphModel>
  </diagram>
</mxfile>
